<?xml version="1.0" standalone="no"?>
<!DOCTYPE svg PUBLIC "-//W3C//DTD SVG 20010904//EN"
 "http://www.w3.org/TR/2001/REC-SVG-20010904/DTD/svg10.dtd">
<svg version="1.0" xmlns="http://www.w3.org/2000/svg"
 width="250.000000pt" height="250.000000pt" viewBox="0 0 250.000000 250.000000"
 preserveAspectRatio="xMidYMid meet">
<metadata>
Created by potrace 1.14, written by Peter Selinger 2001-2017
</metadata>
<g transform="translate(0.000000,250.000000) scale(0.100000,-0.100000)"
fill="#000000" stroke="none">
<path d="M320 1480 c0 -662 3 -830 12 -824 7 5 301 242 653 528 352 285 646
524 654 530 32 25 156 -185 182 -309 15 -76 16 -234 0 -305 -54 -256 -288
-494 -536 -545 -73 -15 -321 -21 -328 -8 -2 5 101 157 229 338 129 182 257
363 285 403 l51 73 -298 -243 c-163 -134 -432 -354 -598 -489 l-301 -245 -3
-97 -3 -97 448 0 c486 0 550 5 698 55 266 88 492 291 616 550 79 165 93 237
93 455 0 161 -3 196 -22 270 -32 119 -118 289 -196 387 -65 82 -202 207 -262
239 l-32 17 -158 -130 c-88 -72 -309 -255 -493 -407 -184 -152 -339 -272 -343
-268 -5 5 -7 141 -6 303 l3 294 217 5 217 5 175 144 c97 80 173 148 169 152
-5 4 -39 15 -78 25 -61 15 -132 18 -557 21 l-488 4 0 -831z"/>
</g>
</svg>
